Coordinates
nRows=15
nColumns=24

# SIMM Motion File Header:
name Coordinates
datacolumns 24
datarows 15
otherdata 1
range 0.56167000000000000000 0.57567000000000002000
endheader
time	pelvis_tx	pelvis_ty	pelvis_tz	pelvis_tilt	pelvis_list	pelvis_rotation	hip_flexion_r	hip_adduction_r	hip_rotation_r	knee_angle_r	ankle_angle_r	subtalar_angle_r	mtp_angle_r	hip_flexion_l	hip_adduction_l	hip_rotation_l	knee_angle_l	ankle_angle_l	subtalar_angle_l	mtp_angle_l	lumbar_extension	lumbar_bending	lumbar_rotation
      0.56167000000000000000	      1.53991951679725060000	      0.88682190175504383000	     -0.21517544651695047000	     -4.06203926705844070000	     -4.09715870086069960000	    -10.49849551703329500000	     -5.34108579656123880000	      7.55684154071433230000	      3.37765820825698880000	      2.65606690448066460000	      3.52558033156370820000	      0.00000000000002288257	     -0.00000000000016084892	     28.08444824631459400000	     -8.74874884903705840000	     -2.41443096949637280000	    -57.81101414533336000000	     14.61597861136824900000	      0.00000000000028440960	     -0.00000000000055183515	     -5.90553846081555010000	      2.58312685219497110000	     21.68830705055805600000
      0.56267000000000000000	      1.54173431577293480000	      0.88676462701977443000	     -0.21494220495149763000	     -4.05753905201841380000	     -4.04644220928032980000	    -10.60453942458953800000	     -5.53653586553102620000	      7.48877216178823790000	      3.38056441422272340000	      2.78903379378114650000	      3.53145454332977990000	      0.00000000000002274785	     -0.00000000000016054990	     28.19493387193671200000	     -8.73100149018877050000	     -2.35719133336910500000	    -57.47438322967487100000	     14.60753699040477300000	      0.00000000000028525317	     -0.00000000000055258682	     -5.94026996021163180000	      2.49721978637563690000	     21.70416764928260600000
      0.56367000000000000000	      1.54354911474861930000	      0.88670735228450515000	     -0.21470896338604478000	     -4.05303883697838610000	     -3.99572571769996050000	    -10.71058333214578300000	     -5.73198593450081440000	      7.42070278286214350000	      3.38347062018845830000	      2.92200068308162610000	      3.53732875509584940000	      0.00000000000002261313	     -0.00000000000016025087	     28.30541949755882300000	     -8.71325413134048080000	     -2.29995169724183630000	    -57.13775231401638200000	     14.59909536944129400000	      0.00000000000028609674	     -0.00000000000055333848	     -5.97500145960771430000	      2.41131272055630360000	     21.72002824800715700000
      0.56467000000000001000	      1.54536274268313840000	      0.88664216528975259000	     -0.21447970460372182000	     -4.04552528978553740000	     -3.94720482453506390000	    -10.81746925965293300000	     -5.92667641282143800000	      7.35347635721782030000	      3.38824767847168660000	      3.04798528139099510000	      3.53717063233418430000	      0.00000000000002247479	     -0.00000000000015989202	     28.40627150957231400000	     -8.69780194157217680000	     -2.23804228746178600000	    -56.78881191456238000000	     14.58371499668683300000	      0.00000000000028695702	     -0.00000000000055417499	     -6.01338980412585760000	      2.32778734873536090000	     21.73963094495220000000
      0.56567000000000001000	      1.54717637061765780000	      0.88657697829500004000	     -0.21425044582139885000	     -4.03801174259268960000	     -3.89868393137016730000	    -10.92435518716008100000	     -6.12136689114206070000	      7.28624993157349720000	      3.39302473675491490000	      3.17396987970036370000	      3.53701250957251870000	      0.00000000000002233644	     -0.00000000000015953317	     28.50712352158580400000	     -8.68234975180387280000	     -2.17613287768173610000	    -56.43987151510837900000	     14.56833462393237400000	      0.00000000000028781730	     -0.00000000000055501149	     -6.05177814864399990000	      2.24426197691441810000	     21.75923364189723900000
      0.56667000000000001000	      1.54898953605706420000	      0.88650833614626967000	     -0.21402299130267746000	     -4.02924586922277060000	     -3.85127916754832710000	    -11.03164651564781300000	     -6.31558941599973790000	      7.21955387201818240000	      3.39910124253291230000	      3.29660204261478460000	      3.53582881422708880000	      0.00000000000002218845	     -0.00000000000015914074	     28.60374363653334100000	     -8.66805402087796040000	     -2.11220616249541180000	    -56.08561019711972100000	     14.54941287546275500000	      0.00000000000028867669	     -0.00000000000055587430	     -6.09170774640086070000	      2.16194916738010660000	     21.78063237083733100000
      0.56767000000000001000	      1.55080223900135810000	      0.88643623884356171000	     -0.21379734104755771000	     -4.01922766967578580000	     -3.80499053306954020000	    -11.13934324511612500000	     -6.50934398739446870000	      7.15338817855187430000	      3.40647719580567590000	      3.41588177013426590000	      3.53361954629789650000	      0.00000000000002203082	     -0.00000000000015871473	     28.69613185441493600000	     -8.65491474879443600000	     -2.04626214190281840000	    -55.72602796059641900000	     14.52694975127798400000	      0.00000000000028953519	     -0.00000000000055676342	     -6.13317859739643630000	      2.08084892013242320000	     21.80382713177246100000
      0.56867000000000001000	      1.55261444539026750000	      0.88635973477894958000	     -0.21357351013893455000	     -4.00892366446295160000	     -3.75988843443619960000	    -11.24754322400892400000	     -6.70142264892823820000	      7.08802952437706240000	      3.41555438460627150000	      3.53121011090355850000	      3.53341494760689480000	      0.00000000000002185872	     -0.00000000000015822391	     28.78541130028626300000	     -8.64319029545567120000	     -1.97839280044685430000	    -55.36152507640461100000	     14.50073917239225300000	      0.00000000000029039909	     -0.00000000000055767534	     -6.17507461052798500000	      2.00127090018498780000	     21.82892298203878300000
      0.56967000000000001000	      1.55442615522379230000	      0.88627882395243329000	     -0.21335149857680799000	     -3.99833385358426740000	     -3.71597287164830630000	    -11.35624645232621100000	     -6.89182540060104290000	      7.02347790949374580000	      3.42633280893470230000	      3.64258706492265770000	      3.53521501815408710000	      0.00000000000002167215	     -0.00000000000015766829	     28.87158197414731100000	     -8.63288066086166770000	     -1.90859813812751700000	    -54.99210154454430500000	     14.47078113880555300000	      0.00000000000029126836	     -0.00000000000055861005	     -6.21739578579550580000	      1.92321510753780170000	     21.85591992163629300000
      0.57067000000000001000	      1.55623786505731740000	      0.88619791312591700000	     -0.21312948701468143000	     -3.98774404270558320000	     -3.67205730886041290000	    -11.46494968064349600000	     -7.08222815227384840000	      6.95892629461043020000	      3.43711123326313260000	      3.75396401894175740000	      3.53701508870127900000	      0.00000000000002148558	     -0.00000000000015711267	     28.95775264800836300000	     -8.62257102626766430000	     -1.83880347580817970000	    -54.62267801268399800000	     14.44082310521885400000	      0.00000000000029213764	     -0.00000000000055954476	     -6.25971696106302660000	      1.84515931489061580000	     21.88291686123380200000
      0.57167000000000001000	      1.55804848631365900000	      0.88610505131160489000	     -0.21291154634517245000	     -3.97873969544129210000	     -3.63067850363341190000	    -11.57501398327552700000	     -7.26611805943853110000	      6.89654643792674540000	      3.45191895826148580000	      3.85537672138477160000	      3.54729260875655950000	      0.00000000000002117206	     -0.00000000000015615688	     29.03954037829024400000	     -8.61580829620422330000	     -1.76514056203033380000	    -54.24308979115836800000	     14.40281079121317700000	      0.00000000000029301117	     -0.00000000000056049836	     -6.30034573968482370000	      1.77095481957219340000	     21.91436254517412900000
      0.57267000000000001000	      1.55985910757000060000	      0.88601218949729266000	     -0.21269360567566351000	     -3.96973534817700060000	     -3.58929969840641140000	    -11.68507828590755800000	     -7.45000796660321460000	      6.83416658124306050000	      3.46672668325983850000	      3.95678942382778630000	      3.55757012881184000000	      0.00000000000002085855	     -0.00000000000015520109	     29.12132810857212600000	     -8.60904556614078230000	     -1.69147764825248780000	    -53.86350156963273900000	     14.36479847720749900000	      0.00000000000029388470	     -0.00000000000056145195	     -6.34097451830662170000	      1.69675032425377090000	     21.94580822911445500000
      0.57367000000000001000	      1.56166958221716070000	      0.88591389223266970000	     -0.21247784800606201000	     -3.96128454587251340000	     -3.54893448433823710000	    -11.79572380562583700000	     -7.63097930433688810000	      6.77255726278272800000	      3.48311780133275480000	      4.05347732138003640000	      3.57144742422442410000	      0.00000000000002053191	     -0.00000000000015419509	     29.20059857593674500000	     -8.60372194405547570000	     -1.61616835690154660000	    -53.47886952236719800000	     14.32298727582830900000	      0.00000000000029476017	     -0.00000000000056238596	     -6.38090184125096190000	      1.62414882686805150000	     21.97941703703686400000
      0.57467000000000001000	      1.56347991025513930000	      0.88581015951773601000	     -0.21226427333636799000	     -3.95338728852782890000	     -3.50958286142888820000	    -11.90695054243036400000	     -7.80903207263955590000	      6.71171848254574590000	      3.50109231248023270000	      4.14544041404152890000	      3.58892449499430730000	      0.00000000000002019215	     -0.00000000000015313889	     29.27735178038409800000	     -8.59983742994830710000	     -1.53921268797751190000	    -53.08919364936175400000	     14.27737718707561000000	      0.00000000000029563758	     -0.00000000000056330038	     -6.42012770851784610000	      1.55315032741503360000	     22.01518896894135900000
      0.57567000000000002000	      1.56529023829311800000	      0.88570642680280232000	     -0.21205069866667400000	     -3.94549003118314450000	     -3.47023123851954060000	    -12.01817727923489100000	     -7.98708484094222190000	      6.65087970230876470000	      3.51906682362771090000	      4.23740350670301690000	      3.60640156576419240000	      0.00000000000001985239	     -0.00000000000015208268	     29.35410498483145100000	     -8.59595291584113670000	     -1.46225701905347580000	    -52.69951777635630200000	     14.23176709832290900000	      0.00000000000029651499	     -0.00000000000056421481	     -6.45935357578473020000	      1.48215182796201690000	     22.05096090084585800000
